<svg width="16" height="16" viewBox="0 0 16 16" fill="none" xmlns="http://www.w3.org/2000/svg">
<path d="M12.4995 5.50001C11.9235 5.50094 11.3654 5.70035 10.9193 6.06463C10.4731 6.42892 10.1661 6.93584 10.05 7.50001H5.94949C5.82558 6.89298 5.4807 6.35359 4.9817 5.98641C4.48269 5.61922 3.86513 5.4504 3.24873 5.51267C2.63233 5.57493 2.061 5.86386 1.64552 6.32343C1.23004 6.783 1 7.38047 1 8.00001C1 8.61954 1.23004 9.21701 1.64552 9.67658C2.061 10.1362 2.63233 10.4251 3.24873 10.4873C3.86513 10.5496 4.48269 10.3808 4.9817 10.0136C5.4807 9.64642 5.82558 9.10703 5.94949 8.50001H10.0495C10.1441 8.96346 10.3682 9.39057 10.6959 9.73173C11.0235 10.0729 11.4413 10.3141 11.9005 10.4273C12.3598 10.5405 12.8417 10.5212 13.2904 10.3714C13.7391 10.2217 14.1361 9.94771 14.4353 9.58134C14.7345 9.21498 14.9236 8.77125 14.9807 8.30169C15.0378 7.83213 14.9605 7.35601 14.7578 6.92863C14.5551 6.50126 14.2353 6.14016 13.8355 5.88727C13.4358 5.63439 12.9725 5.5001 12.4995 5.50001ZM12.4995 9.50001C12.2028 9.50001 11.9128 9.41203 11.6661 9.24721C11.4195 9.08239 11.2272 8.84812 11.1137 8.57403C11.0001 8.29994 10.9704 7.99834 11.0283 7.70737C11.0862 7.4164 11.2291 7.14912 11.4388 6.93935C11.6486 6.72957 11.9159 6.58671 12.2069 6.52883C12.4978 6.47095 12.7994 6.50065 13.0735 6.61419C13.3476 6.72772 13.5819 6.91998 13.7467 7.16665C13.9115 7.41332 13.9995 7.70333 13.9995 8.00001C13.9991 8.39771 13.8409 8.77901 13.5597 9.06023C13.2785 9.34145 12.8972 9.49961 12.4995 9.50001Z" fill="#7E7E86"/>
</svg>
